<mxfile host="app.diagrams.net" agent="Mozilla/5.0 (Windows NT 10.0; Win64; x64) AppleWebKit/537.36 (KHTML, like Gecko) Chrome/135.0.0.0 Safari/537.36" version="26.2.12">
  <diagram name="Page-1" id="9361dd3d-8414-5efd-6122-117bd74ce7a7">
    <mxGraphModel dx="1828" dy="1177" grid="1" gridSize="10" guides="1" tooltips="1" connect="1" arrows="1" fold="1" page="0" pageScale="1.5" pageWidth="826" pageHeight="1169" background="none" math="0" shadow="0">
      <root>
        <mxCell id="0" />
        <mxCell id="1" parent="0" />
        <mxCell id="69" value="" style="fillColor=#DEE8FF;strokeColor=none" parent="1" vertex="1">
          <mxGeometry x="-20" y="-10" width="1570" height="800" as="geometry" />
        </mxCell>
        <mxCell id="2" value="" style="fillColor=#CC4125;strokeColor=#660000" parent="1" vertex="1">
          <mxGeometry x="200" y="150" width="10" height="450" as="geometry" />
        </mxCell>
        <mxCell id="3" value="validate()" style="edgeStyle=none;verticalLabelPosition=top;verticalAlign=bottom;labelPosition=left;align=right" parent="1" edge="1">
          <mxGeometry x="110" y="49.5" width="100" height="100" as="geometry">
            <mxPoint x="110" y="149.5" as="sourcePoint" />
            <mxPoint x="200" y="149.5" as="targetPoint" />
          </mxGeometry>
        </mxCell>
        <mxCell id="6" value="" style="fillColor=#CC4125;strokeColor=#660000" parent="1" vertex="1">
          <mxGeometry x="342.5" y="180" width="10" height="410" as="geometry" />
        </mxCell>
        <mxCell id="7" value="Produto" style="shadow=1;fillColor=#A2C4C9;strokeColor=none" parent="1" vertex="1">
          <mxGeometry x="255" y="60" width="185" height="50" as="geometry" />
        </mxCell>
        <mxCell id="8" value="" style="edgeStyle=none;endArrow=none;dashed=1" parent="1" source="7" target="6" edge="1">
          <mxGeometry x="272.3350694444445" y="165" width="100" height="100" as="geometry">
            <mxPoint x="347.2588734567901" y="110" as="sourcePoint" />
            <mxPoint x="347.5761959876544" y="165" as="targetPoint" />
          </mxGeometry>
        </mxCell>
        <mxCell id="9" value="escolhe os produtos" style="edgeStyle=none;verticalLabelPosition=top;verticalAlign=bottom" parent="1" edge="1">
          <mxGeometry x="220" y="92" width="100" height="100" as="geometry">
            <mxPoint x="210" y="179.5" as="sourcePoint" />
            <mxPoint x="340" y="179.5" as="targetPoint" />
          </mxGeometry>
        </mxCell>
        <mxCell id="15" value="Carrinho" style="shadow=1;fillColor=#A2C4C9;strokeColor=none" parent="1" vertex="1">
          <mxGeometry x="462.2839506172839" y="54.99999999999997" width="105" height="50" as="geometry" />
        </mxCell>
        <mxCell id="17" value="" style="fillColor=#CC4125;strokeColor=#660000" parent="1" vertex="1">
          <mxGeometry x="509.78" y="244.39" width="10" height="345.61" as="geometry" />
        </mxCell>
        <mxCell id="19" value="carrinho(poduto)" style="edgeStyle=elbowEdgeStyle;elbow=vertical;verticalLabelPosition=top;verticalAlign=bottom" parent="1" edge="1">
          <mxGeometry x="350" y="290" width="100" height="100" as="geometry">
            <mxPoint x="352.5" y="269.39" as="sourcePoint" />
            <mxPoint x="509.77999999999975" y="269.39" as="targetPoint" />
          </mxGeometry>
        </mxCell>
        <mxCell id="23" value="" style="edgeStyle=none;endArrow=none;dashed=1" parent="1" edge="1">
          <mxGeometry x="614.4878472222224" y="174.99999999999997" width="100" height="100" as="geometry">
            <mxPoint x="722.5" y="110" as="sourcePoint" />
            <mxPoint x="722.5" y="269.3899999999999" as="targetPoint" />
          </mxGeometry>
        </mxCell>
        <mxCell id="26" value="" style="fillColor=#CC4125;strokeColor=#660000" parent="1" vertex="1">
          <mxGeometry x="1067.5" y="264.39" width="10" height="295.61" as="geometry" />
        </mxCell>
        <mxCell id="27" value="verificarCompra(produto)" style="edgeStyle=elbowEdgeStyle;elbow=vertical;verticalLabelPosition=top;verticalAlign=bottom" parent="1" source="17" edge="1">
          <mxGeometry x="540" y="270" width="100" height="100" as="geometry">
            <mxPoint x="540" y="370" as="sourcePoint" />
            <mxPoint x="717.5" y="270" as="targetPoint" />
            <Array as="points">
              <mxPoint x="590" y="270" />
            </Array>
          </mxGeometry>
        </mxCell>
        <mxCell id="34" value="pagamento(cliente,pagamento)" style="edgeStyle=elbowEdgeStyle;elbow=vertical;verticalLabelPosition=top;verticalAlign=bottom;" parent="1" edge="1">
          <mxGeometry width="100" height="100" as="geometry">
            <mxPoint x="960" y="290" as="sourcePoint" />
            <mxPoint x="1067.5" y="290" as="targetPoint" />
            <Array as="points">
              <mxPoint x="1007.5" y="290" />
            </Array>
            <mxPoint x="21" y="-10" as="offset" />
          </mxGeometry>
        </mxCell>
        <mxCell id="52" value="" style="edgeStyle=none;endArrow=none;dashed=1" parent="1" edge="1">
          <mxGeometry x="376.5711805555559" y="339.6971450617284" width="100" height="100" as="geometry">
            <mxPoint x="347" y="670" as="sourcePoint" />
            <mxPoint x="347" y="589.9966666666668" as="targetPoint" />
          </mxGeometry>
        </mxCell>
        <mxCell id="71" value="rt submit_changes" style="rounded=1;fontStyle=1;fillColor=#FFD966;strokeColor=none" parent="1" vertex="1">
          <mxGeometry x="50" y="20" width="150" height="30" as="geometry" />
        </mxCell>
        <mxCell id="p8hi7T_ptQwUDlavAlt5-89" value="Cliente" style="shape=umlActor;verticalLabelPosition=bottom;verticalAlign=top;html=1;outlineConnect=0;" vertex="1" parent="1">
          <mxGeometry x="190" y="50" width="30" height="60" as="geometry" />
        </mxCell>
        <mxCell id="p8hi7T_ptQwUDlavAlt5-90" value="" style="edgeStyle=none;endArrow=none;dashed=1;" edge="1" parent="1">
          <mxGeometry x="376.5711805555559" y="339.6971450617284" width="100" height="100" as="geometry">
            <mxPoint x="1630" y="474.6566666666665" as="sourcePoint" />
            <mxPoint x="1630" y="494.1233333333332" as="targetPoint" />
          </mxGeometry>
        </mxCell>
        <mxCell id="p8hi7T_ptQwUDlavAlt5-91" value="" style="edgeStyle=none;endArrow=none;dashed=1" edge="1" parent="1">
          <mxGeometry x="376.5711805555559" y="339.6971450617284" width="100" height="100" as="geometry">
            <mxPoint x="205" y="600" as="sourcePoint" />
            <mxPoint x="205" y="670" as="targetPoint" />
          </mxGeometry>
        </mxCell>
        <mxCell id="p8hi7T_ptQwUDlavAlt5-93" value="ALT" style="shape=umlFrame;whiteSpace=wrap;html=1;pointerEvents=0;" vertex="1" parent="1">
          <mxGeometry x="170" y="360" width="810" height="260" as="geometry" />
        </mxCell>
        <mxCell id="p8hi7T_ptQwUDlavAlt5-94" value="Pagamento" style="shadow=1;fillColor=#A2C4C9;strokeColor=none" vertex="1" parent="1">
          <mxGeometry x="1020" y="55" width="105" height="50" as="geometry" />
        </mxCell>
        <mxCell id="p8hi7T_ptQwUDlavAlt5-95" value="" style="edgeStyle=none;endArrow=none;dashed=1;entryX=0.5;entryY=0;entryDx=0;entryDy=0;exitX=0.5;exitY=1;exitDx=0;exitDy=0;" edge="1" parent="1" source="p8hi7T_ptQwUDlavAlt5-94" target="26">
          <mxGeometry x="614.4878472222224" y="174.99999999999997" width="100" height="100" as="geometry">
            <mxPoint x="934.5" y="105" as="sourcePoint" />
            <mxPoint x="934.5" y="264" as="targetPoint" />
            <Array as="points" />
          </mxGeometry>
        </mxCell>
        <mxCell id="p8hi7T_ptQwUDlavAlt5-101" value="" style="endArrow=none;dashed=1;html=1;rounded=0;exitX=-0.003;exitY=0.512;exitDx=0;exitDy=0;exitPerimeter=0;entryX=0.998;entryY=0.523;entryDx=0;entryDy=0;entryPerimeter=0;" edge="1" parent="1" source="p8hi7T_ptQwUDlavAlt5-93" target="p8hi7T_ptQwUDlavAlt5-93">
          <mxGeometry width="50" height="50" relative="1" as="geometry">
            <mxPoint x="600" y="400" as="sourcePoint" />
            <mxPoint x="650" y="350" as="targetPoint" />
          </mxGeometry>
        </mxCell>
        <mxCell id="p8hi7T_ptQwUDlavAlt5-102" value="" style="edgeStyle=none;endArrow=none;dashed=1" edge="1" parent="1">
          <mxGeometry x="376.5711805555559" y="339.6971450617284" width="100" height="100" as="geometry">
            <mxPoint x="513" y="680" as="sourcePoint" />
            <mxPoint x="513.28" y="589.9966666666668" as="targetPoint" />
          </mxGeometry>
        </mxCell>
        <mxCell id="p8hi7T_ptQwUDlavAlt5-103" value="" style="edgeStyle=none;endArrow=none;dashed=1" edge="1" parent="1">
          <mxGeometry x="376.5711805555559" y="339.6971450617284" width="100" height="100" as="geometry">
            <mxPoint x="720" y="640" as="sourcePoint" />
            <mxPoint x="721" y="559.9966666666668" as="targetPoint" />
          </mxGeometry>
        </mxCell>
        <mxCell id="p8hi7T_ptQwUDlavAlt5-107" value="" style="edgeStyle=none;endArrow=none;dashed=1" edge="1" parent="1">
          <mxGeometry x="376.5711805555559" y="339.6971450617284" width="100" height="100" as="geometry">
            <mxPoint x="934.5" y="640" as="sourcePoint" />
            <mxPoint x="935.5" y="559.9966666666668" as="targetPoint" />
          </mxGeometry>
        </mxCell>
        <mxCell id="p8hi7T_ptQwUDlavAlt5-111" value="chekout validado" style="html=1;verticalAlign=bottom;endArrow=open;dashed=1;endSize=8;curved=0;rounded=0;exitX=0.15;exitY=0.446;exitDx=0;exitDy=0;entryX=0.922;entryY=0.45;entryDx=0;entryDy=0;entryPerimeter=0;exitPerimeter=0;" edge="1" parent="1" target="17">
          <mxGeometry relative="1" as="geometry">
            <mxPoint x="670" y="405" as="targetPoint" />
            <mxPoint x="719" y="399.0020599999998" as="sourcePoint" />
          </mxGeometry>
        </mxCell>
        <mxCell id="p8hi7T_ptQwUDlavAlt5-112" value="Pagamento realizado" style="html=1;verticalAlign=bottom;endArrow=open;dashed=1;endSize=8;curved=0;rounded=0;" edge="1" parent="1">
          <mxGeometry relative="1" as="geometry">
            <mxPoint x="720" y="380" as="targetPoint" />
            <mxPoint x="930" y="380" as="sourcePoint" />
          </mxGeometry>
        </mxCell>
        <mxCell id="p8hi7T_ptQwUDlavAlt5-114" value="Venda Realizada" style="html=1;verticalAlign=bottom;endArrow=open;dashed=1;endSize=8;curved=0;rounded=0;exitX=-0.178;exitY=0.543;exitDx=0;exitDy=0;exitPerimeter=0;" edge="1" parent="1" source="17">
          <mxGeometry relative="1" as="geometry">
            <mxPoint x="352.5" y="430" as="targetPoint" />
            <mxPoint x="562.5" y="430" as="sourcePoint" />
          </mxGeometry>
        </mxCell>
        <mxCell id="p8hi7T_ptQwUDlavAlt5-115" value="Erro ao realizar venda" style="html=1;verticalAlign=bottom;endArrow=open;dashed=1;endSize=8;curved=0;rounded=0;exitX=-0.178;exitY=0.543;exitDx=0;exitDy=0;exitPerimeter=0;" edge="1" parent="1">
          <mxGeometry relative="1" as="geometry">
            <mxPoint x="354.28" y="540" as="targetPoint" />
            <mxPoint x="509.78" y="542" as="sourcePoint" />
          </mxGeometry>
        </mxCell>
        <mxCell id="p8hi7T_ptQwUDlavAlt5-116" value="Venda com erro" style="text;html=1;align=center;verticalAlign=middle;whiteSpace=wrap;rounded=0;" vertex="1" parent="1">
          <mxGeometry x="210" y="510" width="60" height="30" as="geometry" />
        </mxCell>
        <mxCell id="p8hi7T_ptQwUDlavAlt5-117" value="Vendo Ok" style="text;html=1;align=center;verticalAlign=middle;whiteSpace=wrap;rounded=0;" vertex="1" parent="1">
          <mxGeometry x="210" y="420" width="60" height="30" as="geometry" />
        </mxCell>
        <mxCell id="p8hi7T_ptQwUDlavAlt5-118" value="" style="edgeStyle=none;endArrow=none;dashed=1;exitX=0.5;exitY=0;exitDx=0;exitDy=0;" edge="1" parent="1" source="17">
          <mxGeometry x="376.5711805555559" y="339.6971450617284" width="100" height="100" as="geometry">
            <mxPoint x="512" y="195" as="sourcePoint" />
            <mxPoint x="512.28" y="104.99666666666678" as="targetPoint" />
          </mxGeometry>
        </mxCell>
        <mxCell id="p8hi7T_ptQwUDlavAlt5-119" value="Visualizar Produtos" style="html=1;verticalAlign=bottom;endArrow=open;dashed=1;endSize=8;curved=0;rounded=0;exitX=-0.178;exitY=0.543;exitDx=0;exitDy=0;exitPerimeter=0;" edge="1" parent="1">
          <mxGeometry relative="1" as="geometry">
            <mxPoint x="352.5" y="310" as="targetPoint" />
            <mxPoint x="508" y="312" as="sourcePoint" />
          </mxGeometry>
        </mxCell>
        <mxCell id="p8hi7T_ptQwUDlavAlt5-120" value="Pagamento não Realizado" style="html=1;verticalAlign=bottom;endArrow=open;dashed=1;endSize=8;curved=0;rounded=0;" edge="1" parent="1">
          <mxGeometry relative="1" as="geometry">
            <mxPoint x="727.5" y="524.5" as="targetPoint" />
            <mxPoint x="930" y="525" as="sourcePoint" />
          </mxGeometry>
        </mxCell>
        <mxCell id="p8hi7T_ptQwUDlavAlt5-121" value="chekout nao validado" style="html=1;verticalAlign=bottom;endArrow=open;dashed=1;endSize=8;curved=0;rounded=0;exitX=0.15;exitY=0.446;exitDx=0;exitDy=0;entryX=0.922;entryY=0.45;entryDx=0;entryDy=0;entryPerimeter=0;exitPerimeter=0;" edge="1" parent="1">
          <mxGeometry relative="1" as="geometry">
            <mxPoint x="519.78" y="521" as="targetPoint" />
            <mxPoint x="719.78" y="520" as="sourcePoint" />
          </mxGeometry>
        </mxCell>
        <mxCell id="p8hi7T_ptQwUDlavAlt5-123" value="Banco de Dados" style="shadow=1;fillColor=#A2C4C9;strokeColor=none" vertex="1" parent="1">
          <mxGeometry x="850" y="55" width="105" height="50" as="geometry" />
        </mxCell>
        <mxCell id="p8hi7T_ptQwUDlavAlt5-124" value="" style="fillColor=#CC4125;strokeColor=#660000" vertex="1" parent="1">
          <mxGeometry x="897.5" y="269.39" width="10" height="295.61" as="geometry" />
        </mxCell>
      </root>
    </mxGraphModel>
  </diagram>
</mxfile>
